<svg version="1.1" id="Layer_1" xmlns="http://www.w3.org/2000/svg" xmlns:xlink="http://www.w3.org/1999/xlink" x="0px" y="0px"
	 width="100%" viewBox="0 0 426 638" enable-background="new 0 0 426 638" xml:space="preserve">
<path fill="#34352D" opacity="1.000000" stroke="none" 
	d="
M98.000000,639.000000 
	C65.673233,639.000000 33.346470,639.000000 1.014778,639.000000 
	C1.009852,426.383087 1.009852,213.766205 1.009852,1.074651 
	C142.921356,1.074651 284.842743,1.074651 426.882080,1.074651 
	C426.882080,213.544800 426.882080,426.089691 426.882080,639.000000 
	C318.976959,639.000000 210.953491,639.000000 102.464706,638.537354 
	C101.999290,506.575073 101.994461,375.075409 102.001144,243.575775 
	C102.004341,180.742798 102.029358,117.909828 102.373138,54.939034 
	C107.707184,53.367439 110.632156,49.939823 112.505508,45.038727 
	C126.027061,45.016491 139.083893,44.933666 152.137085,45.114159 
	C153.718674,45.136032 155.453445,46.354492 156.816788,47.407402 
	C159.957428,49.832909 162.913132,52.497868 165.960693,55.529675 
	C166.042297,66.681580 166.107086,77.369476 166.092834,88.262207 
	C166.013809,88.467049 165.865051,88.880196 165.465546,88.904282 
	C153.418900,90.420113 144.985474,99.763634 145.261688,110.869865 
	C145.564560,123.047729 153.798676,131.962006 165.907516,133.344299 
	C165.982025,133.548172 166.151962,133.947937 166.107819,134.414734 
	C166.043854,180.831802 166.017624,226.782043 166.005493,272.732300 
	C165.981033,365.465698 165.964233,458.199097 165.618530,551.077698 
	C164.223221,551.674072 163.089218,552.014893 162.095215,552.595459 
	C157.629929,555.203308 155.651947,559.199890 156.075729,564.283142 
	C156.490341,569.256409 160.046600,573.366455 164.906784,574.585999 
	C169.901993,575.839355 174.169434,574.401550 177.398788,570.440186 
	C182.477951,564.209717 180.262634,553.554382 170.042816,550.468506 
	C170.017395,413.982880 170.008972,277.957001 169.992050,141.931137 
	C169.991730,139.269180 169.891418,136.607208 169.921051,133.743561 
	C170.004333,133.541870 170.152557,133.131424 170.551147,133.111450 
	C182.043991,131.660126 189.183212,124.246162 190.561096,113.136833 
	C200.842300,113.051125 210.666855,112.937332 220.486404,113.109612 
	C221.937622,113.135071 223.521530,114.315697 224.772797,115.304962 
	C227.912323,117.787086 230.896393,120.465836 233.959412,123.529709 
	C233.965485,138.308456 233.954956,152.623230 233.615967,167.076096 
	C226.817291,169.867020 223.845886,173.550888 224.024948,179.112137 
	C224.233658,185.593445 228.025436,189.246780 233.962067,191.523956 
	C233.967499,206.306213 233.957535,220.624039 233.619873,235.076324 
	C226.867294,237.861145 223.867905,241.570435 224.027359,247.110764 
	C224.214157,253.601471 228.075958,257.203186 233.957916,259.531250 
	C233.965240,315.642883 233.955261,371.290588 233.617569,427.071686 
	C231.937836,427.831909 230.459702,428.278198 229.256805,429.118530 
	C225.220947,431.937927 223.407867,435.948883 224.139725,440.777802 
	C224.835907,445.371246 227.494629,448.691681 231.975388,450.272552 
	C236.646133,451.920441 240.833664,450.915833 244.398102,447.540680 
	C250.936508,441.349548 248.522736,429.470612 238.040802,426.468109 
	C238.031418,370.355591 238.041306,314.707092 238.377289,258.914917 
	C241.502747,256.375916 244.259079,253.927505 247.121460,251.610077 
	C248.362305,250.605484 249.810455,249.147461 251.183487,249.126205 
	C263.798279,248.931107 276.418121,248.940842 289.033722,249.103577 
	C290.299011,249.119904 291.647705,250.416153 292.782227,251.335052 
	C295.886383,253.849182 298.896851,256.479034 301.961609,259.527222 
	C301.966064,274.305542 301.953308,288.619690 301.614319,303.078094 
	C295.813232,304.917847 292.460266,308.504761 292.059631,314.300079 
	C291.721069,319.197754 293.872131,323.051086 298.155212,325.464966 
	C302.459229,327.890686 306.843597,327.586243 310.874023,324.817810 
	C314.756317,322.151154 316.465729,318.249695 315.896698,313.586639 
	C315.186005,307.762299 311.417389,304.567810 306.045990,302.466492 
	C306.037842,287.689209 306.046539,273.375671 306.380249,258.920593 
	C313.291412,256.111420 316.365356,251.927582 315.976074,246.160873 
	C315.619293,240.874969 311.756104,236.420761 306.507538,235.243774 
	C300.921661,233.991119 296.361115,236.588257 292.736328,242.660645 
	C292.068909,243.778763 290.293335,244.873657 289.015228,244.890198 
	C276.354523,245.053848 263.690033,245.052658 251.029312,244.888718 
	C249.742584,244.872040 248.357285,243.629089 247.218704,242.707016 
	C244.107605,240.187500 241.104004,237.535248 238.039017,234.471558 
	C238.036301,219.697800 238.052383,205.388077 238.396332,190.940109 
	C244.486343,188.911041 247.993103,185.116989 247.947632,178.891266 
	C247.900070,172.379059 243.926437,168.795822 238.039047,166.474091 
	C238.031555,151.691742 238.040527,137.373734 238.375916,122.912201 
	C245.302872,120.100708 248.377808,115.926071 247.972488,110.183250 
	C247.596512,104.856117 243.763016,100.410217 238.545898,99.250740 
	C232.990616,98.016098 228.371857,100.621025 224.743103,106.622040 
	C224.064087,107.744965 222.316238,108.871056 221.048569,108.886002 
	C210.734268,109.007599 200.416870,108.865112 190.088593,108.401634 
	C189.099411,97.297050 181.102936,89.634766 170.053589,88.678055 
	C169.979111,88.470886 169.823166,88.058884 169.873505,87.588943 
	C169.965775,76.433250 170.007721,65.747498 170.377441,54.924423 
	C177.377579,52.047855 180.380417,47.959419 179.969574,42.173347 
	C179.591232,36.844818 175.755539,32.404644 170.524521,31.239836 
	C165.010391,30.011990 160.411346,32.688274 156.707565,38.624374 
	C155.916168,39.892761 153.633102,40.868561 152.024002,40.888062 
	C138.698364,41.049549 125.369598,40.954403 111.909134,40.607788 
	C109.950294,34.632141 106.246796,31.187576 100.171669,31.040192 
	C95.024162,30.915312 91.259216,33.456833 89.059090,38.089489 
	C86.177895,44.156189 88.938766,52.688969 97.969986,55.534153 
	C97.989830,250.327194 97.994911,444.663605 98.000000,639.000000 
z"/>
<path fill="#6D7065" opacity="1.000000" stroke="none" 
	d="
M98.399948,639.000000 
	C97.994911,444.663605 97.989830,250.327194 98.378174,55.503273 
	C99.862572,55.036125 100.953529,55.056488 102.044487,55.076851 
	C102.029358,117.909828 102.004341,180.742798 102.001144,243.575775 
	C101.994461,375.075409 101.999290,506.575073 101.999695,638.537354 
	C100.933296,639.000000 99.866600,639.000000 98.399948,639.000000 
z"/>
<path fill="#6C7065" opacity="1.000000" stroke="none" 
	d="
M165.944260,550.932495 
	C165.964233,458.199097 165.981033,365.465698 166.005493,272.732300 
	C166.017624,226.782043 166.043854,180.831802 166.476166,134.418671 
	C167.871674,133.952301 168.854721,133.948776 169.837753,133.945251 
	C169.891418,136.607208 169.991730,139.269180 169.992050,141.931137 
	C170.008972,277.957001 170.017395,413.982880 169.631592,550.485107 
	C168.139069,550.951843 167.041672,550.942139 165.944260,550.932495 
z"/>
<path fill="#A2AFA0" opacity="1.000000" stroke="none" 
	d="
M190.100403,108.803024 
	C200.416870,108.865112 210.734268,109.007599 221.048569,108.886002 
	C222.316238,108.871056 224.064087,107.744965 224.743103,106.622040 
	C228.371857,100.621025 232.990616,98.016098 238.545898,99.250740 
	C243.763016,100.410217 247.596512,104.856117 247.972488,110.183250 
	C248.377808,115.926071 245.302872,120.100708 237.965363,122.899666 
	C236.133163,123.042351 235.037979,123.054047 233.942795,123.065735 
	C230.896393,120.465836 227.912323,117.787086 224.772797,115.304962 
	C223.521530,114.315697 221.937622,113.135071 220.486404,113.109612 
	C210.666855,112.937332 200.842300,113.051125 190.129807,113.076187 
	C186.965927,113.792686 183.256821,113.907509 182.667282,115.322281 
	C180.200302,121.242386 176.019745,124.546326 169.661957,126.075272 
	C168.145142,126.062050 167.041809,126.068741 165.594208,125.958542 
	C162.889694,124.675003 160.217850,123.889160 158.232529,122.264427 
	C153.755600,118.600655 152.143738,113.564621 153.362442,107.937561 
	C154.818283,101.215706 159.431595,97.506935 166.353271,95.944016 
	C167.861877,95.949791 168.959015,95.941002 170.400696,96.042007 
	C174.223694,98.733337 179.009216,100.616760 180.853973,104.070816 
	C183.228745,108.517220 185.785263,109.606857 190.100403,108.803024 
M174.037888,118.650635 
	C178.762161,113.529594 179.193237,108.895210 175.342178,104.628136 
	C171.519897,100.392944 166.363602,99.878456 162.025528,103.299423 
	C157.968140,106.499031 156.871277,111.588623 159.352005,115.704979 
	C162.505356,120.937485 167.501328,122.155350 174.037888,118.650635 
M235.619781,118.991440 
	C240.485199,118.783134 243.416611,116.291222 243.945938,111.448410 
	C244.370407,107.564774 241.373917,103.787743 237.520111,103.155464 
	C233.379608,102.476166 230.353577,104.249168 228.641113,108.000938 
	C226.568680,112.541290 228.967743,116.657227 235.619781,118.991440 
z"/>
<path fill="#A2AEA0" opacity="1.000000" stroke="none" 
	d="
M233.940598,259.067322 
	C228.075958,257.203186 224.214157,253.601471 224.027359,247.110764 
	C223.867905,241.570435 226.867294,237.861145 234.030762,235.090866 
	C235.865494,234.959137 236.961655,234.947357 238.057816,234.935577 
	C241.104004,237.535248 244.107605,240.187500 247.218704,242.707016 
	C248.357285,243.629089 249.742584,244.872040 251.029312,244.888718 
	C263.690033,245.052658 276.354523,245.053848 289.015228,244.890198 
	C290.293335,244.873657 292.068909,243.778763 292.736328,242.660645 
	C296.361115,236.588257 300.921661,233.991119 306.507538,235.243774 
	C311.756104,236.420761 315.619293,240.874969 315.976074,246.160873 
	C316.365356,251.927582 313.291412,256.111420 305.969269,258.907288 
	C304.136993,259.044739 303.040680,259.053894 301.944397,259.063049 
	C298.896851,256.479034 295.886383,253.849182 292.782227,251.335052 
	C291.647705,250.416153 290.299011,249.119904 289.033722,249.103577 
	C276.418121,248.940842 263.798279,248.931107 251.183487,249.126205 
	C249.810455,249.147461 248.362305,250.605484 247.121460,251.610077 
	C244.259079,253.927505 241.502747,256.375916 237.966354,258.902100 
	C236.133087,259.044464 235.036835,259.055878 233.940598,259.067322 
M296.212799,245.055664 
	C295.471191,248.940399 296.662170,252.385925 300.239044,253.785324 
	C302.542999,254.686737 306.331818,254.842148 308.012726,253.510773 
	C310.088745,251.866455 312.070312,247.997437 311.521790,245.704895 
	C310.906494,243.133667 307.769287,240.228226 305.096680,239.310287 
	C301.245117,237.987366 298.176880,240.572495 296.212799,245.055664 
M243.521973,249.691162 
	C244.678696,246.119385 243.981476,242.687958 240.823990,240.909821 
	C238.650513,239.685837 234.858032,238.839905 233.126297,239.936508 
	C230.760834,241.434433 228.372299,244.958282 228.410385,247.578506 
	C228.444824,249.946503 231.264297,253.206940 233.681046,254.395538 
	C237.611877,256.328735 241.025299,254.171997 243.521973,249.691162 
z"/>
<path fill="#6C7164" opacity="1.000000" stroke="none" 
	d="
M233.957916,259.531250 
	C235.036835,259.055878 236.133087,259.044464 237.640259,259.045837 
	C238.041306,314.707092 238.031418,370.355591 237.629501,426.483795 
	C236.140076,426.955109 235.042679,426.946716 233.945282,426.938293 
	C233.955261,371.290588 233.965240,315.642883 233.957916,259.531250 
z"/>
<path fill="#A2AEA0" opacity="1.000000" stroke="none" 
	d="
M112.041786,40.936909 
	C125.369598,40.954403 138.698364,41.049549 152.024002,40.888062 
	C153.633102,40.868561 155.916168,39.892761 156.707565,38.624374 
	C160.411346,32.688274 165.010391,30.011990 170.524521,31.239836 
	C175.755539,32.404644 179.591232,36.844818 179.969574,42.173347 
	C180.380417,47.959419 177.377579,52.047855 169.967224,54.905914 
	C168.134109,55.038383 167.039001,55.052025 165.943878,55.065670 
	C162.913132,52.497868 159.957428,49.832909 156.816788,47.407402 
	C155.453445,46.354492 153.718674,45.136032 152.137085,45.114159 
	C139.083893,44.933666 126.027061,45.016491 112.506683,44.626682 
	C112.041954,43.134842 112.041870,42.035877 112.041786,40.936909 
M164.592407,50.208385 
	C168.724121,51.952892 172.634094,51.075451 174.461029,47.233070 
	C175.599533,44.838600 175.565674,40.797424 174.223221,38.633461 
	C172.996948,36.656769 169.103958,35.029308 166.749512,35.422630 
	C164.368576,35.820374 161.628922,38.502457 160.492599,40.876186 
	C158.804703,44.402096 160.738083,47.607437 164.592407,50.208385 
z"/>
<path fill="#5B6155" opacity="1.000000" stroke="none" 
	d="
M165.941803,95.929459 
	C159.431595,97.506935 154.818283,101.215706 153.362442,107.937561 
	C152.143738,113.564621 153.755600,118.600655 158.232529,122.264427 
	C160.217850,123.889160 162.889694,124.675003 165.607132,126.396729 
	C165.920563,129.014694 165.876785,131.077545 165.833008,133.140411 
	C153.798676,131.962006 145.564560,123.047729 145.261688,110.869865 
	C144.985474,99.763634 153.418900,90.420113 165.498901,89.347809 
	C165.935104,91.821327 165.938446,93.875389 165.941803,95.929459 
z"/>
<path fill="#D4D6C8" opacity="1.000000" stroke="none" 
	d="
M111.909134,40.607788 
	C112.041870,42.035877 112.041954,43.134842 112.040863,44.645859 
	C110.632156,49.939823 107.707184,53.367439 102.373138,54.939034 
	C100.953529,55.056488 99.862572,55.036125 98.363426,55.046638 
	C88.938766,52.688969 86.177895,44.156189 89.059090,38.089489 
	C91.259216,33.456833 95.024162,30.915312 100.171669,31.040192 
	C106.246796,31.187576 109.950294,34.632141 111.909134,40.607788 
M93.153046,38.892799 
	C91.086227,42.824211 91.652466,46.350952 95.063530,49.179195 
	C97.939911,51.564110 101.163490,51.701672 104.324310,49.676945 
	C108.263840,47.153389 109.175385,42.018448 106.439301,38.317158 
	C103.220779,33.963215 98.348824,33.942753 93.153046,38.892799 
z"/>
<path fill="#A1AD9F" opacity="1.000000" stroke="none" 
	d="
M165.618530,551.077698 
	C167.041672,550.942139 168.139069,550.951843 169.647705,550.944824 
	C180.262634,553.554382 182.477951,564.209717 177.398788,570.440186 
	C174.169434,574.401550 169.901993,575.839355 164.906784,574.585999 
	C160.046600,573.366455 156.490341,569.256409 156.075729,564.283142 
	C155.651947,559.199890 157.629929,555.203308 162.095215,552.595459 
	C163.089218,552.014893 164.223221,551.674072 165.618530,551.077698 
M175.789474,561.056763 
	C172.943176,555.507507 169.142380,553.680176 164.747223,555.747925 
	C161.078506,557.473938 159.061859,561.614258 160.359344,565.260498 
	C161.731842,569.117493 164.549332,571.222839 168.738846,570.928528 
	C173.128036,570.620239 175.593399,567.386230 175.789474,561.056763 
z"/>
<path fill="#A1AD9F" opacity="1.000000" stroke="none" 
	d="
M306.062836,302.930237 
	C311.417389,304.567810 315.186005,307.762299 315.896698,313.586639 
	C316.465729,318.249695 314.756317,322.151154 310.874023,324.817810 
	C306.843597,327.586243 302.459229,327.890686 298.155212,325.464966 
	C293.872131,323.051086 291.721069,319.197754 292.059631,314.300079 
	C292.460266,308.504761 295.813232,304.917847 302.026489,303.090240 
	C303.864197,302.948853 304.963501,302.939545 306.062836,302.930237 
M298.132904,309.677399 
	C295.162109,313.314514 295.124634,317.021027 298.295990,320.449066 
	C300.792328,323.147491 303.956451,323.819244 307.383881,322.173065 
	C311.624695,320.136200 313.237061,315.189270 311.005371,311.225983 
	C308.421722,306.637634 303.960297,305.878540 298.132904,309.677399 
z"/>
<path fill="#A1AD9F" opacity="1.000000" stroke="none" 
	d="
M233.946686,191.059494 
	C228.025436,189.246780 224.233658,185.593445 224.024948,179.112137 
	C223.845886,173.550888 226.817291,169.867020 234.026978,167.087494 
	C235.862778,166.953323 236.959137,166.945877 238.055496,166.938416 
	C243.926437,168.795822 247.900070,172.379059 247.947632,178.891266 
	C247.993103,185.116989 244.486343,188.911041 237.984467,190.920807 
	C236.145386,191.046310 235.046036,191.052902 233.946686,191.059494 
M231.287109,172.624985 
	C228.144653,175.292511 227.011002,178.520157 228.818909,182.385605 
	C230.716644,186.443146 235.412323,188.100998 239.330536,186.232162 
	C243.160797,184.405273 244.928162,180.019150 243.484863,176.184219 
	C242.132950,172.592102 236.834915,169.010910 231.287109,172.624985 
z"/>
<path fill="#A1AD9F" opacity="1.000000" stroke="none" 
	d="
M233.617569,427.071716 
	C235.042679,426.946716 236.140076,426.955109 237.648773,426.947845 
	C248.522736,429.470612 250.936508,441.349548 244.398102,447.540680 
	C240.833664,450.915833 236.646133,451.920441 231.975388,450.272552 
	C227.494629,448.691681 224.835907,445.371246 224.139725,440.777802 
	C223.407867,435.948883 225.220947,431.937927 229.256805,429.118530 
	C230.459702,428.278198 231.937836,427.831909 233.617569,427.071716 
M238.681274,446.517120 
	C242.604614,444.695496 245.180359,441.473694 243.591675,437.432953 
	C242.568741,434.831238 239.368561,431.737213 236.851013,431.452026 
	C234.350433,431.168762 230.459763,433.472839 228.981094,435.791626 
	C225.495804,441.257019 230.474686,447.050110 238.681274,446.517120 
z"/>
<path fill="#5B6155" opacity="1.000000" stroke="none" 
	d="
M190.088593,108.401634 
	C185.785263,109.606857 183.228745,108.517220 180.853973,104.070816 
	C179.009216,100.616760 174.223694,98.733337 170.386841,95.605026 
	C170.061630,93.000565 170.094833,90.942886 170.128052,88.885216 
	C181.102936,89.634766 189.099411,97.297050 190.088593,108.401634 
z"/>
<path fill="#5B6155" opacity="1.000000" stroke="none" 
	d="
M170.075439,126.095177 
	C176.019745,124.546326 180.200302,121.242386 182.667282,115.322281 
	C183.256821,113.907509 186.965927,113.792686 189.671539,113.140625 
	C189.183212,124.246162 182.043991,131.660126 170.512253,132.668991 
	C170.074997,130.196060 170.075211,128.145615 170.075439,126.095177 
z"/>
<path fill="#6C7164" opacity="1.000000" stroke="none" 
	d="
M233.962067,191.523956 
	C235.046036,191.052902 236.145386,191.046310 237.656616,191.059021 
	C238.052383,205.388077 238.036301,219.697800 238.039017,234.471558 
	C236.961655,234.947357 235.865494,234.959137 234.358459,234.956390 
	C233.957535,220.624039 233.967499,206.306213 233.962067,191.523956 
z"/>
<path fill="#6C7164" opacity="1.000000" stroke="none" 
	d="
M238.039047,166.474091 
	C236.959137,166.945877 235.862778,166.953323 234.355408,166.949402 
	C233.954956,152.623230 233.965485,138.308456 233.959412,123.529709 
	C235.037979,123.054047 236.133163,123.042351 237.638916,123.043182 
	C238.040527,137.373734 238.031555,151.691742 238.039047,166.474091 
z"/>
<path fill="#6C7164" opacity="1.000000" stroke="none" 
	d="
M306.045990,302.466492 
	C304.963501,302.939545 303.864197,302.948853 302.352722,302.946014 
	C301.953308,288.619690 301.966064,274.305542 301.961609,259.527222 
	C303.040680,259.053894 304.136993,259.044739 305.644257,259.048889 
	C306.046539,273.375671 306.037842,287.689209 306.045990,302.466492 
z"/>
<path fill="#6C7065" opacity="1.000000" stroke="none" 
	d="
M165.960693,55.529675 
	C167.039001,55.052025 168.134109,55.038383 169.639450,55.043247 
	C170.007721,65.747498 169.965775,76.433250 169.508698,87.583313 
	C168.119659,88.050873 167.145767,88.054123 166.171875,88.057373 
	C166.107086,77.369476 166.042297,66.681580 165.960693,55.529675 
z"/>
<path fill="#7E8577" opacity="1.000000" stroke="none" 
	d="
M169.661957,126.075272 
	C170.075211,128.145615 170.074997,130.196060 170.113678,132.688965 
	C170.152557,133.131424 170.004333,133.541870 169.921051,133.743561 
	C168.854721,133.948776 167.871674,133.952301 166.520294,133.951874 
	C166.151962,133.947937 165.982025,133.548172 165.907516,133.344299 
	C165.876785,131.077545 165.920563,129.014694 165.951416,126.513634 
	C167.041809,126.068741 168.145142,126.062050 169.661957,126.075272 
z"/>
<path fill="#7E8577" opacity="1.000000" stroke="none" 
	d="
M166.092834,88.262207 
	C167.145767,88.054123 168.119659,88.050873 169.458359,88.053253 
	C169.823166,88.058884 169.979111,88.470886 170.053589,88.678055 
	C170.094833,90.942886 170.061630,93.000565 170.042282,95.495224 
	C168.959015,95.941002 167.861877,95.949791 166.353271,95.944016 
	C165.938446,93.875389 165.935104,91.821327 165.898407,89.323730 
	C165.865051,88.880196 166.013809,88.467049 166.092834,88.262207 
z"/>
<path fill="#D7DBCA" opacity="1.000000" stroke="none" 
	d="
M173.742859,118.895889 
	C167.501328,122.155350 162.505356,120.937485 159.352005,115.704979 
	C156.871277,111.588623 157.968140,106.499031 162.025528,103.299423 
	C166.363602,99.878456 171.519897,100.392944 175.342178,104.628136 
	C179.193237,108.895210 178.762161,113.529594 173.742859,118.895889 
z"/>
<path fill="#2A2F28" opacity="1.000000" stroke="none" 
	d="
M235.224335,118.959785 
	C228.967743,116.657227 226.568680,112.541290 228.641113,108.000938 
	C230.353577,104.249168 233.379608,102.476166 237.520111,103.155464 
	C241.373917,103.787743 244.370407,107.564774 243.945938,111.448410 
	C243.416611,116.291222 240.485199,118.783134 235.224335,118.959785 
z"/>
<path fill="#2A2F28" opacity="1.000000" stroke="none" 
	d="
M296.343994,244.684052 
	C298.176880,240.572495 301.245117,237.987366 305.096680,239.310287 
	C307.769287,240.228226 310.906494,243.133667 311.521790,245.704895 
	C312.070312,247.997437 310.088745,251.866455 308.012726,253.510773 
	C306.331818,254.842148 302.542999,254.686737 300.239044,253.785324 
	C296.662170,252.385925 295.471191,248.940399 296.343994,244.684052 
z"/>
<path fill="#2A2F28" opacity="1.000000" stroke="none" 
	d="
M243.358521,250.045639 
	C241.025299,254.171997 237.611877,256.328735 233.681046,254.395538 
	C231.264297,253.206940 228.444824,249.946503 228.410385,247.578506 
	C228.372299,244.958282 230.760834,241.434433 233.126297,239.936508 
	C234.858032,238.839905 238.650513,239.685837 240.823990,240.909821 
	C243.981476,242.687958 244.678696,246.119385 243.358521,250.045639 
z"/>
<path fill="#2A2F28" opacity="1.000000" stroke="none" 
	d="
M164.243286,50.031620 
	C160.738083,47.607437 158.804703,44.402096 160.492599,40.876186 
	C161.628922,38.502457 164.368576,35.820374 166.749512,35.422630 
	C169.103958,35.029308 172.996948,36.656769 174.223221,38.633461 
	C175.565674,40.797424 175.599533,44.838600 174.461029,47.233070 
	C172.634094,51.075451 168.724121,51.952892 164.243286,50.031620 
z"/>
<path fill="#2E3029" opacity="1.000000" stroke="none" 
	d="
M93.382202,38.578033 
	C98.348824,33.942753 103.220779,33.963215 106.439301,38.317158 
	C109.175385,42.018448 108.263840,47.153389 104.324310,49.676945 
	C101.163490,51.701672 97.939911,51.564110 95.063530,49.179195 
	C91.652466,46.350952 91.086227,42.824211 93.382202,38.578033 
z"/>
<path fill="#2A2F28" opacity="1.000000" stroke="none" 
	d="
M175.858383,561.441895 
	C175.593399,567.386230 173.128036,570.620239 168.738846,570.928528 
	C164.549332,571.222839 161.731842,569.117493 160.359344,565.260498 
	C159.061859,561.614258 161.078506,557.473938 164.747223,555.747925 
	C169.142380,553.680176 172.943176,555.507507 175.858383,561.441895 
z"/>
<path fill="#2A2F28" opacity="1.000000" stroke="none" 
	d="
M298.407043,309.403259 
	C303.960297,305.878540 308.421722,306.637634 311.005371,311.225983 
	C313.237061,315.189270 311.624695,320.136200 307.383881,322.173065 
	C303.956451,323.819244 300.792328,323.147491 298.295990,320.449066 
	C295.124634,317.021027 295.162109,313.314514 298.407043,309.403259 
z"/>
<path fill="#2A2F28" opacity="1.000000" stroke="none" 
	d="
M231.601059,172.395630 
	C236.834915,169.010910 242.132950,172.592102 243.484863,176.184219 
	C244.928162,180.019150 243.160797,184.405273 239.330536,186.232162 
	C235.412323,188.100998 230.716644,186.443146 228.818909,182.385605 
	C227.011002,178.520157 228.144653,175.292511 231.601059,172.395630 
z"/>
<path fill="#2A2F28" opacity="1.000000" stroke="none" 
	d="
M238.307068,446.645996 
	C230.474686,447.050110 225.495804,441.257019 228.981094,435.791626 
	C230.459763,433.472839 234.350433,431.168762 236.851013,431.452026 
	C239.368561,431.737213 242.568741,434.831238 243.591675,437.432953 
	C245.180359,441.473694 242.604614,444.695496 238.307068,446.645996 
z"/>
</svg>